<svg xmlns="http://www.w3.org/2000/svg" viewBox="0 0 48 48"><defs><style>.cls-1{fill:#7c7d7d;}.cls-2{fill:#919191;}.cls-3{fill:#c6c3d8;}.cls-4{fill:#dad7e5;}.cls-5{fill:#9fdbf3;}.cls-6{fill:#b2e5fb;}.cls-7{fill:#edebf2;}.cls-8{fill:#6fabe6;}.cls-9{fill:#82bcf4;}.cls-10{fill:#374f68;}.cls-11{fill:#425b72;}</style></defs><title>Analysis of gear vision</title><g id="Analysis_of_gear_vision" data-name="Analysis of gear vision"><path class="cls-1" d="M41,17v8H37.51a17,17,0,0,1-12.4,12.48C25,37.52,25,37.14,25,41H17V37.51a16.68,16.68,0,0,1-4.84-2L9.69,38,4,32.31,6.5,29.84a16.68,16.68,0,0,1-2-4.84H1V17c3.86,0,3.48.05,3.52-.11a16.75,16.75,0,0,1,2-4.73L4,9.69,9.69,4l2.46,2.46a18.54,18.54,0,0,1,4.74-2c.16,0,.11.34.11-3.52h8V4.49a16.68,16.68,0,0,1,4.84,2L32.31,4,38,9.69,35.5,12.16a16.69,16.69,0,0,1,2,4.74C37.53,17,37.11,17,41,17Z"/><path class="cls-2" d="M41,17v8H37.51a17,17,0,0,1-12.4,12.48c-.16,0-.11-.17-.11,1.42a20,20,0,0,1-8-.82c0-.67,0-.56-.1-.6a16.69,16.69,0,0,1-4.74-2l-.18.18A19.82,19.82,0,0,1,6.32,30l.18-.18a16.68,16.68,0,0,1-2-4.84H3.92a20,20,0,0,1-.82-8H4.49a17,17,0,0,1,2-4.84L4.88,10.54A19.8,19.8,0,0,1,9.72,4.06l2.43,2.43a18.54,18.54,0,0,1,4.74-2c.16,0,.11.34.11-3.52h8V4.49a16.68,16.68,0,0,1,4.84,2L32.31,4,38,9.69,35.5,12.16a16.69,16.69,0,0,1,2,4.74C37.53,17,37.11,17,41,17Z"/><path class="cls-3" d="M46.54,43a3.54,3.54,0,0,1-6,2.5L27.34,32.34a11.85,11.85,0,0,0,2.33-1.67,12.5,12.5,0,0,0,2.67-3.33L45.5,40.5A3.55,3.55,0,0,1,46.54,43Z"/><path class="cls-4" d="M46.5,42.5a3.54,3.54,0,0,1-5,0L29.67,30.67a12.5,12.5,0,0,0,2.67-3.33C46.43,41.43,46.28,40.92,46.5,42.5Z"/><path class="cls-5" d="M34,21A13,13,0,0,1,21,34C8.77,34,3.31,18.5,12.87,10.87A13,13,0,0,1,34,21Z"/><path class="cls-6" d="M34,21a13,13,0,0,1-1.71,6.44,6.06,6.06,0,0,1-2.85,2.85A13,13,0,0,1,12.87,10.87,13,13,0,0,1,34,21Z"/><path class="cls-4" d="M34,21c-2.31,3.61-8.4,6-13,6S10.31,24.61,8,21c2.45-3.74,8.55-6,13-6C26.57,15,32.27,18.12,34,21Z"/><path class="cls-7" d="M33.69,20.57A18.37,18.37,0,0,1,22,25c-4.41,0-10.2-2.2-12.69-5.57A18.37,18.37,0,0,1,21,15C25.41,15,31.2,17.2,33.69,20.57Z"/><path class="cls-8" d="M27,21a6,6,0,1,1-9.12-5.12A6,6,0,0,1,27,21Z"/><path class="cls-9" d="M26.12,24.12c-5.3,3.26-11.53-2.9-8.24-8.24C23.2,12.6,29.39,18.81,26.12,24.12Z"/><path class="cls-10" d="M23,21a2,2,0,1,1-2.82-1.82A2,2,0,0,1,23,21Z"/><path class="cls-11" d="M22.82,21.82a2,2,0,0,1-2.64-2.64A2,2,0,0,1,22.82,21.82Z"/><path d="M46.21,39.79,33.57,27.16a14,14,0,1,0-6.41,6.41L39.79,46.21a4.54,4.54,0,0,0,6.42-6.42ZM16,21a5,5,0,1,1,5,5A5,5,0,0,1,16,21Zm-.81,3.9a13.39,13.39,0,0,1-6-3.9,13.39,13.39,0,0,1,6-3.9A7,7,0,0,0,15.19,24.9Zm11.62-7.8a13.39,13.39,0,0,1,6,3.9,13.39,13.39,0,0,1-6,3.9A7,7,0,0,0,26.81,17.1ZM21,9a12,12,0,0,1,11.61,9A19.73,19.73,0,0,0,21,14,19.73,19.73,0,0,0,9.39,18,12,12,0,0,1,21,9ZM9.39,24A19.73,19.73,0,0,0,21,28a19.82,19.82,0,0,0,11.62-4C29.57,36,12.46,36,9.39,24Zm35.4,20.83a2.53,2.53,0,0,1-3.58,0L28.92,32.51a13.92,13.92,0,0,0,3.59-3.59L44.79,41.21A2.53,2.53,0,0,1,44.79,44.79Z"/><path d="M26.14,36.15C23.68,36.93,24,36.23,24,40H18V37.51a1,1,0,0,0-.76-1c-4.12-1-4.79-2.75-5.79-1.75L9.69,36.56,5.44,32.31l1.77-1.76a1,1,0,0,0,.14-1.23C3.89,23.63,7.32,24,2,24V18H4.49a1,1,0,0,0,1-.76c1.56-6.4,3.74-3.79,0-7.55L9.69,5.44l1.78,1.78a1,1,0,0,0,1.21.13C18.27,3.92,18,7.33,18,2h6V4.49a1,1,0,0,0,.76,1c4.12,1,4.79,2.75,5.79,1.75l1.76-1.77,4.25,4.25-1.77,1.76a1,1,0,0,0-.14,1.23C38.11,18.37,34.68,18,40,18v6c-3.76,0-3.07-.32-3.85,2.14a1,1,0,0,0,1.9.6c.08-.24.16-.49.23-.74H41a1,1,0,0,0,1-1V17a1,1,0,0,0-1-1H38.28a18.12,18.12,0,0,0-1.53-3.68C38.82,10.26,39,10.25,39,9.69s.09-.32-5.95-6.37a1,1,0,0,0-1.42,0L29.68,5.25A18.12,18.12,0,0,0,26,3.72V1a1,1,0,0,0-1-1H17a1,1,0,0,0-1,1V3.72a17.75,17.75,0,0,0-3.68,1.53L10.4,3.32A1,1,0,0,0,9,3.32L3.32,9a1,1,0,0,0,0,1.42l1.93,1.92A17.22,17.22,0,0,0,3.72,16H1a1,1,0,0,0-1,1v8a1,1,0,0,0,1,1H3.72a18.12,18.12,0,0,0,1.53,3.68C3.18,31.74,3,31.75,3,32.31s-.09.32,6,6.37a1,1,0,0,0,1.42,0l1.92-1.93A18.12,18.12,0,0,0,16,38.28V41a1,1,0,0,0,1,1h8a1,1,0,0,0,1-1V38.28l.74-.23A1,1,0,0,0,26.14,36.15Z"/><path d="M21,18a3,3,0,1,0,3,3A3,3,0,0,0,21,18Zm0,4a1,1,0,0,1,0-2A1,1,0,0,1,21,22Z"/></g></svg>