<svg xmlns="http://www.w3.org/2000/svg" viewBox="0 0 32 32"><title>63-Communication</title><g id="_63-Communication" data-name="63-Communication"><path d="M31,2H27V4h3V24H18a1,1,0,0,0-.71.29L13,28.59V25a1,1,0,0,0-1-1H2V19H0v6a1,1,0,0,0,1,1H11v5a1,1,0,0,0,1.71.71L18.41,26H31a1,1,0,0,0,1-1V3A1,1,0,0,0,31,2Z"/><path d="M1,16H8v4a1,1,0,0,0,1.71.71L14.41,16H23a1,1,0,0,0,1-1V1a1,1,0,0,0-1-1H1A1,1,0,0,0,0,1V15A1,1,0,0,0,1,16ZM2,2H22V14H14a1,1,0,0,0-.71.29L10,17.59V15a1,1,0,0,0-1-1H2Z"/><rect x="11" y="7" width="2" height="2"/><rect x="15" y="7" width="2" height="2"/><rect x="7" y="7" width="2" height="2"/></g></svg>