<?xml version="1.0" encoding="UTF-8"?>
<!DOCTYPE svg PUBLIC "-//W3C//DTD SVG 1.1//EN" "http://www.w3.org/Graphics/SVG/1.1/DTD/svg11.dtd">
<!-- Creator: CorelDRAW -->
<svg xmlns="http://www.w3.org/2000/svg" xml:space="preserve" width="6.82666in" height="6.82666in" style="shape-rendering:geometricPrecision; text-rendering:geometricPrecision; image-rendering:optimizeQuality; fill-rule:evenodd; clip-rule:evenodd"
viewBox="0 0 6.82666 6.82666"
 xmlns:xlink="http://www.w3.org/1999/xlink">
 <defs>
  <style type="text/css">
   <![CDATA[
    .fil14 {fill:none}
    .fil4 {fill:#202020}
    .fil7 {fill:#323232}
    .fil9 {fill:#414141}
    .fil11 {fill:#565656}
    .fil12 {fill:#6A6A6A}
    .fil1 {fill:#747474}
    .fil13 {fill:#757575}
    .fil8 {fill:#BBBBBC}
    .fil2 {fill:#C6C6C7}
    .fil6 {fill:#CACBCB}
    .fil5 {fill:#D5D5D6}
    .fil3 {fill:#E5E5E6}
    .fil10 {fill:white}
    .fil0 {fill:#ACADAD;fill-rule:nonzero}
   ]]>
  </style>
 </defs>
 <g id="Layer_x0020_1">
  <metadata id="CorelCorpID_0Corel-Layer"/>
  <path class="fil0" d="M4.8135 0.858173l-0.993705 0c-0.0734488,0 -0.140169,0.0299921 -0.188488,0.078315 -0.048315,0.048315 -0.078311,0.115031 -0.078311,0.188484l0 1.08291c0,0.0734488 0.0299961,0.140173 0.078311,0.188488 0.0483189,0.0483189 0.115039,0.078315 0.188488,0.078315l0.0470433 0 0 0.486429 3.93701e-006 0c0,0.0200906 0.00766142,0.0401772 0.0229882,0.0555039 0.0306496,0.0306496 0.0803504,0.0306496 0.111004,0l-7.87402e-006 -7.87402e-006 0.541929 -0.541925 1.16011 0c0.0734449,0 0.140169,-0.0299961 0.188484,-0.078315 0.0483189,-0.048315 0.078315,-0.115039 0.078315,-0.188488l0 -1.08291c0,-0.0734488 -0.0299921,-0.140169 -0.078311,-0.188488 -0.048315,-0.0483189 -0.115039,-0.078311 -0.188488,-0.078311l-0.889366 0z"/>
  <g id="_550432608">
   <rect id="_550432776" class="fil1" x="3.95802" y="1.42576" width="1.60661" height="0.0950467"/>
   <rect id="_550432968" class="fil1" x="3.95802" y="1.61586" width="1.60661" height="0.0950467"/>
   <rect id="_550432680" class="fil1" x="3.95802" y="1.80596" width="0.856107" height="0.0950467"/>
  </g>
  <g id="_550430904">
   <path id="_550432656" class="fil2" d="M3.64198 3.09385c-0.0679291,-0.0224016 -0.154398,0.0547126 -0.193087,0.172248 -0.038689,0.117504 -0.0149803,0.230913 0.0529843,0.253311 0.0679291,0.0223661 0.154398,-0.0547441 0.193087,-0.172283 0.0387244,-0.117504 0.0149803,-0.230917 -0.0529843,-0.253276z"/>
   <path id="_550431816" class="fil2" d="M1.65534 3.09385c0.0679646,-0.0224016 0.154433,0.054748 0.193122,0.172248 0.0386929,0.117504 0.0149803,0.230913 -0.0529724,0.253276 -0.0679646,0.0224016 -0.154433,-0.0547087 -0.193122,-0.172248 -0.0386929,-0.117504 -0.0149803,-0.230917 0.0529724,-0.253276z"/>
   <path id="_550431576" class="fil3" d="M3.00635 4.34192c0.794583,0.348327 1.03294,0.534031 1.12715,0.617425 0.145197,0.12848 0.225504,0.607382 0.311138,1.01401l-1.79768 0 -1.79768 0c0.0856339,-0.40663 0.165972,-0.885531 0.311134,-1.01401 0.0942126,-0.0833937 0.323835,-0.264307 1.11842,-0.612677l0.727516 -0.00474803z"/>
   <path id="_550431744" class="fil4" d="M3.00639 4.34192c0.794547,0.348327 1.03291,0.534031 1.12711,0.617425 0.145197,0.12848 0.225504,0.607382 0.311138,1.01401l-1.79768 0 -1.79765 0c0.085626,-0.40663 0.165941,-0.885531 0.31113,-1.01401 0.094185,-0.0833937 0.323807,-0.264307 1.11839,-0.612677l0.727551 -0.00474803z"/>
   <path id="_550432128" class="fil5" d="M2.26117 3.64756l0 0.880748c0.212197,0.25989 0.559421,0.25089 0.771587,0l0 -0.880748c0,-0.475587 -0.771587,-0.475587 -0.771587,0z"/>
   <path id="_550432008" class="fil6" d="M2.26117 3.64756l0 0.589677c0.145996,0.106417 0.286705,0.166035 0.385791,0.166035 0.0990866,0 0.239823,-0.0596181 0.385795,-0.166035l0 -0.589677c0,-0.475587 -0.771587,-0.475587 -0.771587,0z"/>
   <path id="_550431984" class="fil5" d="M2.64696 2.0663c1.29486,0 0.829205,1.56458 0.744622,1.68911 -0.0932638,0.13735 -0.535417,0.501386 -0.744622,0.501386 -0.209205,0 -0.651331,-0.364035 -0.744587,-0.501386 -0.0846181,-0.124531 -0.550272,-1.68911 0.744587,-1.68911z"/>
   <path id="_550431528" class="fil7" d="M3.23883 2.58989c0.0751063,0.410346 0.263205,0.372047 0.248283,0.853575 0.055622,-0.34548 0.163894,-0.783016 -0.0557008,-1.04913 0.173138,-0.158441 -0.165972,-0.297555 -0.280067,-0.34624 -0.0512874,-0.0218858 -0.105697,-0.0441181 -0.164776,-0.0620236 -0.12085,-0.0366299 -0.251913,-0.0653858 -0.394039,-0.0600157 -0.163996,0.00620472 -0.342252,0.0529606 -0.533551,0.174386 -0.3175,0.201547 -0.486874,0.625008 -0.259992,1.27615 0.0344567,-0.229453 0.0301575,-0.40526 0.18802,-0.561213 0.164811,-0.162815 0.536449,0.279496 1.25182,-0.225484z"/>
   <path id="_550431672" class="fil8" d="M2.64496 4.71985c0,0 0.538402,0.128531 0.538402,0.161122 0,0.0325906 -0.204874,1.09238 -0.204874,1.09238l-0.730949 0 -0.0837795 -1.08771 0.481201 -0.165791z"/>
   <polygon id="_550431936" class="fil9" points="3.03276,4.35352 3.03276,4.52831 2.86517,5.97335 3.15334,5.97335 3.47037,5.32974 3.16776,5.12801 3.53758,4.9551 3.1975,4.4274 "/>
   <polygon id="_550431648" class="fil9" points="2.26117,4.35444 2.26114,4.52831 2.4304,5.97335 2.14222,5.97335 1.82524,5.32974 2.12782,5.12801 1.75799,4.9551 2.06024,4.44366 "/>
   <polygon id="_550430808" class="fil10" points="3.03276,4.23724 3.06648,4.36841 2.97209,5.05161 2.64496,4.71987 "/>
   <path id="_550430688" class="fil11" d="M2.81287 4.89856l-0.093437 0.144748c-0.0482874,0 -0.0966378,0 -0.144925,0l-0.0934646 -0.144748 0.163909 -0.178705 0.167917 0.178705z"/>
   <polygon id="_550431312" class="fil12" points="2.71944,5.0433 2.85246,5.97335 2.44146,5.97335 2.57448,5.0433 "/>
   <polygon id="_550431192" class="fil10" points="2.26117,4.23724 2.23456,4.36628 2.32324,5.05843 2.64496,4.71987 "/>
   <path id="_550431384" class="fil13" d="M3.71204 5.97335l-0.0615591 0c0.00275197,-0.273756 0.00275197,-0.471063 0.00275197,-0.471063 0,0 0.0272717,0.205047 0.0588071,0.471063z"/>
   <path id="_550431336" class="fil13" d="M1.58188 5.97335l0.0615945 0c-0.00275197,-0.273756 -0.00275197,-0.471063 -0.00275197,-0.471063 0,0 -0.0272677,0.205047 -0.0588425,0.471063z"/>
  </g>
 </g>
 <rect class="fil14" width="6.82666" height="6.82666"/>
</svg>
