<?xml version="1.0" encoding="utf-8"?>
<!-- Generator: Adobe Illustrator 24.0.0, SVG Export Plug-In . SVG Version: 6.00 Build 0)  -->
<svg version="1.1" xmlns="http://www.w3.org/2000/svg" xmlns:xlink="http://www.w3.org/1999/xlink" x="0px" y="0px"
	 viewBox="0 0 256 256" enable-background="new 0 0 256 256" xml:space="preserve">
<g id="Layer_2">
</g>
<g id="Layer_1">
	<g>
	</g>
	<g>
		<path fill="#EFC01F" d="M234.21,25.25c0,23.43,0,74.7-0.01,113.22v6.98c-4.78-3.22-10.55-5.12-16.76-5.12h-49
			c-16.57,0-30,13.43-30,30v20.09H92.53v21.07c0,11.73-9.54,21.01-20.99,21.01c-0.01,0-0.01,0-0.02,0
			c-10.65,0-20.57-8.18-20.97-20.64V26.24c0-11.59-9.4-20.99-21-20.99h184.66C225.26,5.25,234.21,14.2,234.21,25.25z"/>
		<path fill="#E8A521" d="M234.2,138.47v6.98c-4.78-3.22-10.55-5.12-16.76-5.12h-49c-16.57,0-30,13.43-30,30v20.09h-6.01v-20.09
			c0-19.78,16.04-35.89,35.79-36c-3.95-5.14-6.3-11.57-6.3-18.51V95.83l-1.21-7.56c-1.84-11.41,6.98-21.76,18.53-21.76h22.66
			c2.09,0,4.17-0.51,6.02-1.47l16.06-8.38l2.94,6.06c5.53,11.39,3.9,25.1-3.96,34.87v18.23c0,6.94-2.35,13.37-6.3,18.51h0.77
			C223.53,134.33,229.22,135.83,234.2,138.47z"/>
		<path fill="#FFB69F" d="M192.447,140.335L192.447,140.335c-13.542,0-24.519-10.978-24.519-24.519V95.354h49.038v20.462
			C216.965,129.357,205.988,140.335,192.447,140.335z"/>
		<path fill="#7D7B79" d="M221.282,64.835l-10.578,5.521c-2.718,1.418-5.738,2.159-8.804,2.159h-22.658
			c-7.865,0-13.861,7.04-12.609,14.804l1.295,8.035h49.038l0,0c7.594-8.091,9.409-20.028,4.564-30.011L221.282,64.835z"/>
		<path fill="#AFAFAF" d="M138.44,190.42v42.08h-66.9c11.45,0,20.99-9.28,20.99-21.01v-21.07H138.44z"/>
		<rect x="132.43" y="190.42" fill="#878787" width="6.01" height="42.08"/>
		<path fill="#75C2ED" d="M247.44,170.33v80.42h-109v-80.42c0-16.57,13.43-30,30-30h49c6.21,0,11.98,1.9,16.76,5.12
			c0,0.01,0.01,0.01,0.01,0.01s0.01,0,0.01,0.01C242.53,151.12,247.44,160.35,247.44,170.33z"/>
		<path fill="#EFC01F" d="M203.457,183.07c0,3.56-0.93,6.9-2.56,9.79c-1.8,3.22-4.47,5.89-7.69,7.69c-2.9,1.63-6.24,2.56-9.8,2.56
			c-11.07,0-20.04-8.97-20.04-20.04s8.97-20.05,20.04-20.05C194.487,163.02,203.457,172,203.457,183.07z"/>
		<path fill="#FC5D3D" d="M220.907,220.56c-2.13,2.12-5.57,2.12-7.69,0l-20.01-20.01c3.22-1.8,5.89-4.47,7.69-7.69l20.01,20.01
			C223.027,214.99,223.027,218.44,220.907,220.56z"/>
		<path fill="#AFAFAF" d="M50.553,26.24v31.84H8.563V26.24c0-11.59,9.39-20.99,20.99-20.99S50.553,14.65,50.553,26.24z"/>
		<g>
			<g>
				<path fill="#C5E5FE" d="M237.437,243.25h-72c-1.381,0-2.5-1.119-2.5-2.5s1.119-2.5,2.5-2.5h69.5v-67.92
					c0-9.649-7.851-17.5-17.5-17.5c-1.381,0-2.5-1.119-2.5-2.5s1.119-2.5,2.5-2.5c12.407,0,22.5,10.093,22.5,22.5v70.42
					C239.937,242.131,238.818,243.25,237.437,243.25z M155.437,243.25h-7c-1.381,0-2.5-1.119-2.5-2.5s1.119-2.5,2.5-2.5h7
					c1.381,0,2.5,1.119,2.5,2.5S156.818,243.25,155.437,243.25z"/>
			</g>
		</g>
		<path d="M185.98,70.02c-1.37,0-2.49,1.12-2.49,2.49c0,1.38,1.12,2.5,2.49,2.5c1.38,0,2.5-1.12,2.5-2.5
			C188.48,71.14,187.36,70.02,185.98,70.02z"/>
		<path d="M203.299,120.183c0-1.381-1.119-2.5-2.5-2.5s-2.5,1.119-2.5,2.5c0,3.227-2.625,5.852-5.853,5.852
			s-5.852-2.625-5.852-5.852c0-1.381-1.119-2.5-2.5-2.5s-2.5,1.119-2.5,2.5c0,5.984,4.868,10.852,10.852,10.852
			S203.299,126.167,203.299,120.183z"/>
		<path d="M183.903,107.99v-0.826c0-1.381-1.119-2.5-2.5-2.5s-2.5,1.119-2.5,2.5v0.826c0,1.381,1.119,2.5,2.5,2.5
			S183.903,109.371,183.903,107.99z"/>
		<path d="M213.104,32.75h-26.56c-1.381,0-2.5,1.119-2.5,2.5s1.119,2.5,2.5,2.5h26.56c1.381,0,2.5-1.119,2.5-2.5
			S214.484,32.75,213.104,32.75z"/>
		<path d="M71.543,37.75h105c1.381,0,2.5-1.119,2.5-2.5s-1.119-2.5-2.5-2.5h-105c-1.381,0-2.5,1.119-2.5,2.5
			S70.163,37.75,71.543,37.75z"/>
		<path d="M203.457,54.22H71.543c-1.381,0-2.5,1.119-2.5,2.5s1.119,2.5,2.5,2.5h131.913c1.381,0,2.5-1.119,2.5-2.5
			S204.837,54.22,203.457,54.22z"/>
		<path d="M151.104,80.69c1.381,0,2.5-1.119,2.5-2.5s-1.119-2.5-2.5-2.5h-45.56c-1.381,0-2.5,1.119-2.5,2.5s1.119,2.5,2.5,2.5
			H151.104z"/>
		<path d="M71.543,80.69h24c1.381,0,2.5-1.119,2.5-2.5s-1.119-2.5-2.5-2.5h-24c-1.381,0-2.5,1.119-2.5,2.5
			S70.163,80.69,71.543,80.69z"/>
		<path d="M155.104,97.16h-83.56c-1.381,0-2.5,1.119-2.5,2.5s1.119,2.5,2.5,2.5h83.56c1.381,0,2.5-1.119,2.5-2.5
			S156.484,97.16,155.104,97.16z"/>
		<path d="M151.104,118.63h-29.56c-1.381,0-2.5,1.119-2.5,2.5s1.119,2.5,2.5,2.5h29.56c1.381,0,2.5-1.119,2.5-2.5
			S152.484,118.63,151.104,118.63z"/>
		<path d="M71.543,123.63h40c1.381,0,2.5-1.119,2.5-2.5s-1.119-2.5-2.5-2.5h-40c-1.381,0-2.5,1.119-2.5,2.5
			S70.163,123.63,71.543,123.63z"/>
		<path d="M131.883,140.1h-60.34c-1.381,0-2.5,1.119-2.5,2.5s1.119,2.5,2.5,2.5h60.34c1.381,0,2.5-1.119,2.5-2.5
			S133.264,140.1,131.883,140.1z"/>
		<path d="M86.543,161.57h-15c-1.381,0-2.5,1.119-2.5,2.5s1.119,2.5,2.5,2.5h15c1.381,0,2.5-1.119,2.5-2.5
			S87.924,161.57,86.543,161.57z"/>
		<path d="M122.604,161.57h-26.06c-1.381,0-2.5,1.119-2.5,2.5s1.119,2.5,2.5,2.5h26.06c1.381,0,2.5-1.119,2.5-2.5
			S123.984,161.57,122.604,161.57z"/>
		<path d="M192.888,175.99c-0.976-0.977-2.56-0.977-3.535,0l-8.848,8.847l-3.034-3.034c-0.976-0.977-2.56-0.977-3.535,0
			c-0.977,0.976-0.977,2.559,0,3.535l4.802,4.802c0.976,0.977,2.56,0.977,3.535,0l10.615-10.615
			C193.864,178.549,193.864,176.966,192.888,175.99z"/>
		<path d="M183.407,160.52c-12.429,0-22.54,10.116-22.54,22.55c0,12.429,10.111,22.54,22.54,22.54c3.217,0,6.396-0.701,9.304-2.02
			l18.738,18.738c3.087,3.088,8.121,3.09,11.221,0.004c0.001-0.001,0.003-0.003,0.004-0.004c3.1-3.1,3.1-8.127,0-11.225
			l-18.737-18.737c1.319-2.903,2.019-6.078,2.019-9.296C205.957,170.636,195.841,160.52,183.407,160.52z M165.867,183.07
			c0-9.677,7.869-17.55,17.54-17.55c9.677,0,17.55,7.873,17.55,17.55c0,9.734-7.924,17.54-17.55,17.54
			C173.735,200.61,165.867,192.741,165.867,183.07z M219.141,218.791c-1.151,1.143-3.015,1.143-4.157,0.002l-17.845-17.845
			c1.606-1.232,3.093-2.771,4.154-4.154l17.845,17.845C220.281,215.779,220.286,217.643,219.141,218.791z"/>
		<path d="M247.437,253.25c1.381,0,2.5-1.119,2.5-2.5v-80.42c0-10.317-4.925-19.981-13.223-26.135V25.25
			c0-12.407-10.093-22.5-22.5-22.5H29.553c-12.952,0-23.49,10.538-23.49,23.49v31.84c0,1.381,1.119,2.5,2.5,2.5h39.49l0.001,151.36
			C48.518,226.375,60.351,235,71.543,235h64.393v15.75c0,1.381,1.119,2.5,2.5,2.5s2.5-1.119,2.5-2.5v-80.42
			c0-15.164,12.336-27.5,27.5-27.5c7.251,0,41.202,0,48.997,0c15.381,0,27.503,12.567,27.503,27.5v80.42
			C244.937,252.131,246.056,253.25,247.437,253.25z M48.053,55.58h-36.99V26.24c0-10.195,8.294-18.49,18.49-18.49
			c10.201,0,18.5,8.295,18.5,18.49V55.58z M86.011,230c5.692-4.465,9.022-11.297,9.022-18.51v-18.57h40.9V230H86.011z
			 M170.427,115.816V97.854h44.038v17.961c0,11.852-9.515,22.014-22.212,22.014C180.201,137.726,170.427,127.892,170.427,115.816z
			 M208.082,137.83c6.882-4.902,11.383-12.94,11.383-22.014V96.315c7.388-8.439,9.798-20.872,4.064-32.575
			c-0.643-1.308-2.185-1.753-3.41-1.12l-10.57,5.52c-2.36,1.23-5,1.88-7.65,1.88h-5.92c-1.37,0-2.5,1.12-2.5,2.49
			c0,1.38,1.13,2.5,2.5,2.5h5.92c3.45,0,6.9-0.84,9.96-2.44l8.22-4.29c3.284,8.433,1.526,17.876-4.226,24.575h-45.795
			c-1.062-6.565-1.089-6.485-1.089-7.595c-0.01-4.6,3.22-8.77,7.68-9.92c1.33-0.34,2.14-1.71,1.79-3.05
			c-0.34-1.3-1.73-2.13-3.05-1.79c-6.72,1.75-11.42,7.82-11.42,14.76c0,1.576,0.048,1.513,1.458,10.287v20.27
			c0,9.074,4.501,17.112,11.383,22.014h-8.374h-0.003c-17.92,0-32.5,14.58-32.5,32.5v17.586h-43.4c-1.381,0-2.5,1.119-2.5,2.5v0.003
			v21.07c0,10.205-8.293,18.51-18.51,18.51c-8.671,0-18.092-6.386-18.47-18.14V58.08V26.24c0-7.017-3.189-13.915-9.021-18.49
			h170.182c9.649,0,17.5,7.851,17.5,17.5v115.884c-4.201-2.061-9.172-3.301-14.266-3.303c-0.004,0-0.008,0-0.011,0h-0.003H208.082z"
			/>
		<path d="M203.49,110.49c1.381,0,2.5-1.119,2.5-2.5v-0.826c0-1.381-1.119-2.5-2.5-2.5s-2.5,1.119-2.5,2.5v0.826
			C200.99,109.371,202.109,110.49,203.49,110.49z"/>
	</g>
</g>
</svg>
