<?xml version="1.0" encoding="UTF-8"?>
<!DOCTYPE svg PUBLIC "-//W3C//DTD SVG 1.1//EN" "http://www.w3.org/Graphics/SVG/1.1/DTD/svg11.dtd">
<svg xmlns="http://www.w3.org/2000/svg" version="1.1" width="128px" height="34px" style="shape-rendering:geometricPrecision; text-rendering:geometricPrecision; image-rendering:optimizeQuality; fill-rule:evenodd; clip-rule:evenodd" xmlns:xlink="http://www.w3.org/1999/xlink">
<g><path style="opacity:1" fill="#f9f9fa" d="M -0.5,-0.5 C 42.1667,-0.5 84.8333,-0.5 127.5,-0.5C 127.5,10.8333 127.5,22.1667 127.5,33.5C 84.8333,33.5 42.1667,33.5 -0.5,33.5C -0.5,22.1667 -0.5,10.8333 -0.5,-0.5 Z"/></g>
<g><path style="opacity:1" fill="#d7dde4" d="M 26.5,8.5 C 28.371,8.85883 29.871,9.85883 31,11.5C 31.3826,10.944 31.8826,10.6107 32.5,10.5C 35.29,16.4572 39.6234,20.9572 45.5,24C 41.0795,23.7093 37.2461,21.876 34,18.5C 31.2833,15.2896 28.7833,11.9563 26.5,8.5 Z"/></g>
<g><path style="opacity:1" fill="#444953" d="M 87.5,9.5 C 91.5138,9.33449 95.5138,9.50115 99.5,10C 103.426,13.1441 103.426,16.3107 99.5,19.5C 96.9159,20.3928 94.2492,20.7261 91.5,20.5C 91.5,22.5 91.5,24.5 91.5,26.5C 90.1667,26.5 88.8333,26.5 87.5,26.5C 87.5,20.8333 87.5,15.1667 87.5,9.5 Z"/></g>
<g><path style="opacity:1" fill="#edf3f8" d="M 91.5,12.5 C 93.5,12.5 95.5,12.5 97.5,12.5C 97.5,13.8333 97.5,15.1667 97.5,16.5C 95.5,16.5 93.5,16.5 91.5,16.5C 91.5,15.1667 91.5,13.8333 91.5,12.5 Z"/></g>
<g><path style="opacity:1" fill="#444550" d="M 108.5,9.5 C 110.604,9.2011 112.604,9.53443 114.5,10.5C 116.707,15.7913 118.707,21.1246 120.5,26.5C 117.646,25.188 114.646,24.188 111.5,23.5C 108.354,24.188 105.354,25.188 102.5,26.5C 104.214,20.737 106.214,15.0703 108.5,9.5 Z"/></g>
<g><path style="opacity:1" fill="#e5e8ee" d="M 110.5,13.5 C 112.821,15.0897 113.821,17.4231 113.5,20.5C 111.712,20.7852 110.045,20.4519 108.5,19.5C 109.747,17.677 110.414,15.677 110.5,13.5 Z"/></g>
<g><path style="opacity:1" fill="#41454f" d="M 71.5,9.5 C 74.3938,9.04229 76.8938,9.70896 79,11.5C 80.7353,16.2062 82.5687,20.8729 84.5,25.5C 82.9547,26.4519 81.288,26.7852 79.5,26.5C 79.5,25.5 79.5,24.5 79.5,23.5C 76.8127,23.3359 74.146,23.5026 71.5,24C 70.3826,25.8921 68.7159,26.7254 66.5,26.5C 68.3714,20.8865 70.0381,15.2198 71.5,9.5 Z"/></g>
<g><path style="opacity:1" fill="#e4ebf1" d="M 74.5,14.5 C 76.9689,15.6067 77.9689,17.6067 77.5,20.5C 75.712,20.7852 74.0453,20.4519 72.5,19.5C 73.4565,17.9246 74.1231,16.258 74.5,14.5 Z"/></g>
<g><path style="opacity:1" fill="#414652" d="M 26.5,8.5 C 28.7833,11.9563 31.2833,15.2896 34,18.5C 37.2461,21.876 41.0795,23.7093 45.5,24C 39.6234,20.9572 35.29,16.4572 32.5,10.5C 35.214,9.13702 37.8806,9.30369 40.5,11C 42.7954,14.2974 45.462,17.2974 48.5,20C 50.8333,20.6667 53.1667,20.6667 55.5,20C 56.0219,19.4387 56.3552,18.772 56.5,18C 55.0734,16.2998 54.24,14.4665 54,12.5C 60.9099,11.8173 62.2432,14.484 58,20.5C 50.2547,28.9187 41.088,30.7521 30.5,26C 25.7777,23.2273 24.111,19.2273 25.5,14C 22.6814,8.39383 18.3481,6.72716 12.5,9C 8.06626,15.5157 9.73293,20.1824 17.5,23C 10.6248,25.8904 6.62476,23.557 5.5,16C 9.6472,5.59535 16.6472,3.09535 26.5,8.5 Z"/></g>
</svg>
